<?xml version="1.0" encoding="utf-8"?>
<!-- Generator: Adobe Illustrator 27.2.0, SVG Export Plug-In . SVG Version: 6.00 Build 0)  -->
<svg version="1.1" id="Capa_1" xmlns="http://www.w3.org/2000/svg" xmlns:xlink="http://www.w3.org/1999/xlink" x="0px" y="0px"
	 viewBox="0 0 200 200" style="enable-background:new 0 0 200 200;" xml:space="preserve">
<style type="text/css">
	.st0{fill-rule:evenodd;clip-rule:evenodd;fill:#FFFFFF;}
</style>
<g>
	<g>
		<g>
			<path class="st0" d="M146.1,171c-4.7-1.8-10.3-6-14.6-12l0,0c0.9-0.7,1.8-1.4,2.6-2.1c3.7,4.1,8.5,9.1,13.4,11.2
				c11.1,4.5,19.5,5.7,28.6,4.7c0.4,0,0.9-0.2,1.2-0.3c-12.1-0.9-25.4-16.9-32.7-27.2c4.8-6.8,8.7-14.5,12-22.8
				c3.8-9.4,2.7-24.7-2.4-28.1c-5.1-3.4-5.7,5.3-1.8,8.7c3.9,3.3,3.6,5.9,3.7,9c0.1,2.6-1.4,14.8-14.3,29.1
				c-1.1-1.7-1.9-3.1-2.3-3.8c-11.1-16.6-58.2-86.2-63.9-96.2c-6.5-11.6,0.8-24.5,7.5-27.6c11-5.1,26.9,5.8,22.7,17.2
				c-0.7,2-6.4,2.7-3.7,6.7c3.7,3.1,7.4-1.6,7.8-4.7c0.6-3.3,0.4-6.8-0.9-10.1C105.3,12.6,93.8,6.7,82.6,10
				c-8.7,2.6-14.3,9.4-16.8,14.5c-5.6,11.1-2,25.6,4.2,36.9c0.3,0.5,2.7,4.2,6.4,9.8c-12.4,11-41.2,40.5-32,69.2
				c5.7,17.8,16.2,27.8,30.2,31.2c0.2,4.3,1.7,8.8,4.5,13.2c3.4,5.4,5.8,6.4,9.2,9c8.2,5.4,13.1,3.3,14.9-1.3
				c0.1-8.2-11.6-3.7-17.8-8.8c-4.1-3.4-6.3-7.3-7-11.3c9.5,1.5,20.5,0.3,32.7-3.1c2.4-0.7,4.8-1.5,7-2.4c3,3.7,6.4,7.1,10,9.2
				c14.6,8.7,36.9,9.1,49.2-1.6C171.7,174.8,164.8,178.1,146.1,171z M84.3,83c15.5,23.2,38.8,58,45.9,68.6c-0.8,0.6-1.7,1.3-2.5,1.9
				c-13.8-20-29.4-45.4-31.5-47.4c-6-5.4-14.8-7.3-22.8-4.5c-4.3,1.8-7.7,3.8-10.3,5.9C67,99.7,73.5,91.1,84.3,83z M57.9,137.1
				c1,0.2,2.3,0,3.8-0.6c6.7-5.1,0.3-7-1-12.8c-1.5-6.9,0.5-8.7,3.3-11.6c5.9-6.2,13.8-3.7,15.1-1.6c0.3,0.5,1,0.9,1.4,1.4
				c5.3,6.7,16.7,24,21.4,31.2c-13.5,3.1-23.2,10.9-26.3,20.7C62.5,157.9,58.5,140.9,57.9,137.1z M82.8,165.5
				c-1.4-0.1-2.8-0.4-4-0.7c2.6-10.1,13.7-18.6,26-16.8c2.9,3.8,6,8.8,9.4,13.6C104.8,165.6,95.1,166.6,82.8,165.5z"/>
		</g>
	</g>
</g>
</svg>
